{
	"asset":{
		"generator":"Khronos glTF Blender I/O v3.5.30",
		"version":"2.0"
	},
	"extensionsUsed":[
		"KHR_materials_specular",
		"KHR_materials_ior"
	],
	"scene":0,
	"scenes":[
		{
			"name":"Scene",
			"nodes":[
				0
			]
		}
	],
	"nodes":[
		{
			"mesh":0,
			"name":"cat",
			"rotation":[
				0.7071068286895752,
				0,
				0,
				0.7071068286895752
			]
		}
	],
	"materials":[
		{
			"doubleSided":true,
			"extensions":{
				"KHR_materials_specular":{
					"specularColorFactor":[
						0,
						0,
						0
					]
				},
				"KHR_materials_ior":{
					"ior":1.4500000476837158
				}
			},
			"name":"cat",
			"pbrMetallicRoughness":{
				"baseColorTexture":{
					"index":0
				},
				"metallicFactor":0,
				"roughnessFactor":0
			}
		}
	],
	"meshes":[
		{
			"name":"cat",
			"primitives":[
				{
					"attributes":{
						"POSITION":0,
						"TEXCOORD_0":1,
						"NORMAL":2
					},
					"indices":3,
					"material":0
				}
			]
		}
	],
	"textures":[
		{
			"sampler":0,
			"source":0
		}
	],
	"images":[
		{
			"mimeType":"image/jpeg",
			"name":"Cat_diffuse",
			"uri":"textures/Cat_diffuse.jpg"
		}
	],
	"accessors":[
		{
			"bufferView":0,
			"componentType":5126,
			"count":36530,
			"max":[
				0.6277599930763245,
				3.862791061401367,
				-0.0005300000193528831
			],
			"min":[
				-0.6277599930763245,
				-2.2255399227142334,
				-3.761260986328125
			],
			"type":"VEC3"
		},
		{
			"bufferView":1,
			"componentType":5126,
			"count":36530,
			"type":"VEC2"
		},
		{
			"bufferView":2,
			"componentType":5126,
			"count":36530,
			"type":"VEC3"
		},
		{
			"bufferView":3,
			"componentType":5123,
			"count":211728,
			"type":"SCALAR"
		}
	],
	"bufferViews":[
		{
			"buffer":0,
			"byteLength":438360,
			"byteOffset":0,
			"target":34962
		},
		{
			"buffer":0,
			"byteLength":292240,
			"byteOffset":438360,
			"target":34962
		},
		{
			"buffer":0,
			"byteLength":438360,
			"byteOffset":730600,
			"target":34962
		},
		{
			"buffer":0,
			"byteLength":423456,
			"byteOffset":1168960,
			"target":34963
		}
	],
	"samplers":[
		{
			"magFilter":9729,
			"minFilter":9987
		}
	],
	"buffers":[
		{
			"byteLength":1592416,
			"uri":"cat.bin"
		}
	]
}
