{
	"asset":{
		"generator":"Khronos glTF Blender I/O v3.5.30",
		"version":"2.0"
	},
	"scene":0,
	"scenes":[
		{
			"name":"Scene",
			"nodes":[
				0
			]
		}
	],
	"nodes":[
		{
			"mesh":0,
			"name":"cup",
			"rotation":[
				0.7071068286895752,
				0,
				0,
				0.7071068286895752
			]
		}
	],
	"meshes":[
		{
			"name":"cup",
			"primitives":[
				{
					"attributes":{
						"POSITION":0,
						"NORMAL":1
					},
					"indices":2
				}
			]
		}
	],
	"accessors":[
		{
			"bufferView":0,
			"componentType":5126,
			"count":29664,
			"max":[
				0.9935230016708374,
				1.2889280319213867,
				-0.19299399852752686
			],
			"min":[
				-0.9978029727935791,
				-0.9935230016708374,
				-2.1666269302368164
			],
			"type":"VEC3"
		},
		{
			"bufferView":1,
			"componentType":5126,
			"count":29664,
			"type":"VEC3"
		},
		{
			"bufferView":2,
			"componentType":5123,
			"count":177984,
			"type":"SCALAR"
		}
	],
	"bufferViews":[
		{
			"buffer":0,
			"byteLength":355968,
			"byteOffset":0,
			"target":34962
		},
		{
			"buffer":0,
			"byteLength":355968,
			"byteOffset":355968,
			"target":34962
		},
		{
			"buffer":0,
			"byteLength":355968,
			"byteOffset":711936,
			"target":34963
		}
	],
	"buffers":[
		{
			"byteLength":1067904,
			"uri":"cup.bin"
		}
	]
}
