{
	"asset":{
		"generator":"Khronos glTF Blender I/O v3.5.30",
		"version":"2.0"
	},
	"scene":0,
	"scenes":[
		{
			"name":"Scene",
			"nodes":[
				0,
				6
			]
		}
	],
	"nodes":[
		{
			"mesh":0,
			"name":"ground"
		},
		{
			"mesh":1,
			"name":"leaves",
			"translation":[
				0.00671994686126709,
				-0.5107601881027222,
				0.011542677879333496
			]
		},
		{
			"mesh":2,
			"name":"stem",
			"translation":[
				0.00671994686126709,
				-0.5107601881027222,
				0.011542677879333496
			]
		},
		{
			"children":[
				1,
				2
			],
			"name":"plant",
			"translation":[
				-0.00671994686126709,
				0.5107601881027222,
				-0.011542677879333496
			]
		},
		{
			"mesh":3,
			"name":"pebbles",
			"scale":[
				1.00218665599823,
				1.00218665599823,
				1.00218665599823
			],
			"translation":[
				0,
				-0.009999999776482582,
				0
			]
		},
		{
			"children":[
				4
			],
			"mesh":4,
			"name":"pot"
		},
		{
			"children":[
				3,
				5
			],
			"name":"potted_plant"
		}
	],
	"materials":[
		{
			"doubleSided":true,
			"name":"cobblestone_floor",
			"normalTexture":{
				"index":0
			},
			"pbrMetallicRoughness":{
				"baseColorTexture":{
					"index":1
				},
				"metallicFactor":0,
				"roughnessFactor":0.5
			}
		},
		{
			"alphaCutoff":0.5,
			"alphaMode":"MASK",
			"doubleSided":true,
			"name":"potted_plant_leaves",
			"normalTexture":{
				"index":2
			},
			"pbrMetallicRoughness":{
				"baseColorTexture":{
					"index":3
				},
				"metallicFactor":0
			}
		},
		{
			"doubleSided":true,
			"name":"potted_plant_01_pot",
			"normalTexture":{
				"index":4
			},
			"pbrMetallicRoughness":{
				"baseColorTexture":{
					"index":5
				},
				"metallicFactor":0
			}
		}
	],
	"meshes":[
		{
			"name":"Plane",
			"primitives":[
				{
					"attributes":{
						"POSITION":0,
						"TEXCOORD_0":1,
						"NORMAL":2
					},
					"indices":3,
					"material":0
				}
			]
		},
		{
			"name":"Plane.001",
			"primitives":[
				{
					"attributes":{
						"POSITION":4,
						"TEXCOORD_0":5,
						"NORMAL":6
					},
					"indices":7,
					"material":1
				}
			]
		},
		{
			"name":"potted_plant_01_base_low",
			"primitives":[
				{
					"attributes":{
						"POSITION":8,
						"TEXCOORD_0":9,
						"NORMAL":10
					},
					"indices":11,
					"material":2
				}
			]
		},
		{
			"name":"Circle.008",
			"primitives":[
				{
					"attributes":{
						"POSITION":12,
						"TEXCOORD_0":13,
						"NORMAL":14
					},
					"indices":15,
					"material":2
				}
			]
		},
		{
			"name":"Circle.002",
			"primitives":[
				{
					"attributes":{
						"POSITION":16,
						"TEXCOORD_0":17,
						"NORMAL":18
					},
					"indices":19,
					"material":2
				}
			]
		}
	],
	"textures":[
		{
			"sampler":0,
			"source":0
		},
		{
			"sampler":0,
			"source":1
		},
		{
			"sampler":0,
			"source":2
		},
		{
			"sampler":0,
			"source":3
		},
		{
			"sampler":0,
			"source":4
		},
		{
			"sampler":0,
			"source":5
		}
	],
	"images":[
		{
			"mimeType":"image/png",
			"name":"cobblestone_floor_04_nor_gl_1k",
			"uri":"textures/cobblestone_floor_04_nor_gl_1k.png"
		},
		{
			"mimeType":"image/png",
			"name":"cobblestone_floor_04_diff_1k",
			"uri":"textures/cobblestone_floor_04_diff_1k.png"
		},
		{
			"mimeType":"image/png",
			"name":"potted_plant_01_leaves_nor_gl_4k",
			"uri":"textures/potted_plant_01_leaves_nor_gl_4k.png"
		},
		{
			"mimeType":"image/png",
			"name":"potted_plant_leaves_diff-potted_plant_leaves_alpha",
			"uri":"textures/potted_plant_leaves_diff-potted_plant_leaves_alpha.png"
		},
		{
			"mimeType":"image/png",
			"name":"potted_plant_01_pot_nor_gl_4k",
			"uri":"textures/potted_plant_01_pot_nor_gl_4k.png"
		},
		{
			"mimeType":"image/png",
			"name":"potted_plant_01_pot_diff_4k",
			"uri":"textures/potted_plant_01_pot_diff_4k.png"
		}
	],
	"accessors":[
		{
			"bufferView":0,
			"componentType":5126,
			"count":4,
			"max":[
				5.121566295623779,
				0,
				4.988587379455566
			],
			"min":[
				-5.121566295623779,
				0,
				-4.988587379455566
			],
			"type":"VEC3"
		},
		{
			"bufferView":1,
			"componentType":5126,
			"count":4,
			"type":"VEC2"
		},
		{
			"bufferView":2,
			"componentType":5126,
			"count":4,
			"type":"VEC3"
		},
		{
			"bufferView":3,
			"componentType":5123,
			"count":6,
			"type":"SCALAR"
		},
		{
			"bufferView":4,
			"componentType":5126,
			"count":69846,
			"max":[
				0.24901919066905975,
				1.336457371711731,
				0.2698860168457031
			],
			"min":[
				-0.33836793899536133,
				0.5832836627960205,
				-0.36367878317832947
			],
			"type":"VEC3"
		},
		{
			"bufferView":5,
			"componentType":5126,
			"count":69846,
			"type":"VEC2"
		},
		{
			"bufferView":6,
			"componentType":5126,
			"count":69846,
			"type":"VEC3"
		},
		{
			"bufferView":7,
			"componentType":5125,
			"count":320700,
			"type":"SCALAR"
		},
		{
			"bufferView":8,
			"componentType":5126,
			"count":4301,
			"max":[
				0.13674156367778778,
				1.266984224319458,
				0.17607749998569489
			],
			"min":[
				-0.23460757732391357,
				0.41102948784828186,
				-0.21713386476039886
			],
			"type":"VEC3"
		},
		{
			"bufferView":9,
			"componentType":5126,
			"count":4301,
			"type":"VEC2"
		},
		{
			"bufferView":10,
			"componentType":5126,
			"count":4301,
			"type":"VEC3"
		},
		{
			"bufferView":11,
			"componentType":5123,
			"count":21024,
			"type":"SCALAR"
		},
		{
			"bufferView":12,
			"componentType":5126,
			"count":36575,
			"max":[
				0.2112395167350769,
				0.5428022146224976,
				0.21265316009521484
			],
			"min":[
				-0.21813175082206726,
				6.146728992462158e-08,
				-0.21738101541996002
			],
			"type":"VEC3"
		},
		{
			"bufferView":13,
			"componentType":5126,
			"count":36575,
			"type":"VEC2"
		},
		{
			"bufferView":14,
			"componentType":5126,
			"count":36575,
			"type":"VEC3"
		},
		{
			"bufferView":15,
			"componentType":5123,
			"count":170634,
			"type":"SCALAR"
		},
		{
			"bufferView":16,
			"componentType":5126,
			"count":3229,
			"max":[
				0.23310254514217377,
				0.53143310546875,
				0.233102485537529
			],
			"min":[
				-0.23310250043869019,
				0,
				-0.23310253024101257
			],
			"type":"VEC3"
		},
		{
			"bufferView":17,
			"componentType":5126,
			"count":3229,
			"type":"VEC2"
		},
		{
			"bufferView":18,
			"componentType":5126,
			"count":3229,
			"type":"VEC3"
		},
		{
			"bufferView":19,
			"componentType":5123,
			"count":16320,
			"type":"SCALAR"
		}
	],
	"bufferViews":[
		{
			"buffer":0,
			"byteLength":48,
			"byteOffset":0,
			"target":34962
		},
		{
			"buffer":0,
			"byteLength":32,
			"byteOffset":48,
			"target":34962
		},
		{
			"buffer":0,
			"byteLength":48,
			"byteOffset":80,
			"target":34962
		},
		{
			"buffer":0,
			"byteLength":12,
			"byteOffset":128,
			"target":34963
		},
		{
			"buffer":0,
			"byteLength":838152,
			"byteOffset":140,
			"target":34962
		},
		{
			"buffer":0,
			"byteLength":558768,
			"byteOffset":838292,
			"target":34962
		},
		{
			"buffer":0,
			"byteLength":838152,
			"byteOffset":1397060,
			"target":34962
		},
		{
			"buffer":0,
			"byteLength":1282800,
			"byteOffset":2235212,
			"target":34963
		},
		{
			"buffer":0,
			"byteLength":51612,
			"byteOffset":3518012,
			"target":34962
		},
		{
			"buffer":0,
			"byteLength":34408,
			"byteOffset":3569624,
			"target":34962
		},
		{
			"buffer":0,
			"byteLength":51612,
			"byteOffset":3604032,
			"target":34962
		},
		{
			"buffer":0,
			"byteLength":42048,
			"byteOffset":3655644,
			"target":34963
		},
		{
			"buffer":0,
			"byteLength":438900,
			"byteOffset":3697692,
			"target":34962
		},
		{
			"buffer":0,
			"byteLength":292600,
			"byteOffset":4136592,
			"target":34962
		},
		{
			"buffer":0,
			"byteLength":438900,
			"byteOffset":4429192,
			"target":34962
		},
		{
			"buffer":0,
			"byteLength":341268,
			"byteOffset":4868092,
			"target":34963
		},
		{
			"buffer":0,
			"byteLength":38748,
			"byteOffset":5209360,
			"target":34962
		},
		{
			"buffer":0,
			"byteLength":25832,
			"byteOffset":5248108,
			"target":34962
		},
		{
			"buffer":0,
			"byteLength":38748,
			"byteOffset":5273940,
			"target":34962
		},
		{
			"buffer":0,
			"byteLength":32640,
			"byteOffset":5312688,
			"target":34963
		}
	],
	"samplers":[
		{
			"magFilter":9729,
			"minFilter":9987
		}
	],
	"buffers":[
		{
			"byteLength":5345328,
			"uri":"potted_plant.bin"
		}
	]
}
